<?xml version="1.0" standalone="no"?><!DOCTYPE svg PUBLIC "-//W3C//DTD SVG 1.1//EN" "http://www.w3.org/Graphics/SVG/1.1/DTD/svg11.dtd"><svg t="1647502208098" class="icon" viewBox="0 0 1024 1024" version="1.1" xmlns="http://www.w3.org/2000/svg" p-id="4586" xmlns:xlink="http://www.w3.org/1999/xlink" width="200" height="200"><defs><style type="text/css"></style></defs><path d="M992.84 439.414C948.762 214.064 750.256 44.004 512 44.004S75.238 214.064 31.16 439.414z" fill="#FFDD40" p-id="4587"></path><path d="M849.034 252.996h-45.776v125.914h72.952v-98.738c0-15.008-12.168-27.176-27.176-27.176zM220.952 252.996H175.176c-15.008 0-27.176 12.166-27.176 27.176v98.738h72.952z" fill="#47477F" p-id="4588"></path><path d="M849.034 315.954h-45.778v62.958h72.952V288.78c0.002 15.008-12.166 27.174-27.174 27.174zM148 288.778v90.132h72.952v-62.958H175.176C160.168 315.954 148 303.788 148 288.778z" fill="#2D2D59" p-id="4589"></path><path d="M872.77 0c-12.894 0-26.73 4.262-38.6 11.45-13.92 10.452-22.926 27.094-22.926 45.842v99.986h102.226a16.592 16.592 0 0 0 16.592-16.592V57.292C930.06 25.65 904.41 0 872.77 0z" fill="#D3DCFB" p-id="4590"></path><path d="M872.77 0c-12.894 0-26.73 4.262-38.6 11.45-13.92 10.452-22.926 27.094-22.926 45.842v70.666c0-0.938 0.022-1.87 0.066-2.796 1.172-24.4 18.718-44.686 42.154-51.578 6.432-1.892 12.982-2.916 19.306-2.916 31.64 0 57.29 25.65 57.29 57.29V57.29C930.06 25.65 904.41 0 872.77 0z" fill="#BEC8F7" p-id="4591"></path><path d="M815.478 378.912V57.292C815.478 25.65 841.128 0 872.77 0H266.024c-31.642 0-57.292 25.65-57.292 57.292v321.62z" fill="#E9EFFF" p-id="4592"></path><path d="M364.394 311.088V57.292C364.394 25.65 390.044 0 421.684 0h-155.66c-31.642 0-57.292 25.65-57.292 57.292v321.62h223.484c-37.458 0-67.822-30.366-67.822-67.824z" fill="#D3DCFB" p-id="4593"></path><path d="M951.646 439.414v-23.808c0-22.604-18.324-40.93-40.928-40.93H113.282c-22.604 0-40.93 18.324-40.93 40.93v23.808z" fill="#5F5F9B" p-id="4594"></path><path d="M403.114 429.852c-20.616-22.626-6.236-43.12 1.47-51.352 1.012-1.082 1.38-2.494 1.178-3.824H113.282c-22.604 0-40.93 18.324-40.93 40.93v23.808h324.258a35.64 35.64 0 0 1 4.734-2.254c2.984-1.162 3.926-4.942 1.77-7.308z" fill="#47477F" p-id="4595"></path><path d="M85.872 776.024h136.38v-69.862H53.134a487.68 487.68 0 0 0 32.738 69.862z" fill="#746BF9" p-id="4596"></path><path d="M970.864 706.162h-163.122v69.862h130.388a487.66 487.66 0 0 0 32.734-69.862z" fill="#827DF9" p-id="4597"></path><path d="M807.742 924.686c54.81-41.556 100.606-94.37 133.938-155.014h-133.938z" fill="#47477F" p-id="4598"></path><path d="M222.25 929.152v-159.48H82.32c34.54 62.838 82.464 117.27 139.93 159.48z" fill="#2D2D59" p-id="4599"></path><path d="M815.268 706.162H208.732v212.726C292.156 984.71 397.488 1024 512 1024s219.844-39.29 303.268-105.114z" fill="#E9EFFF" p-id="4600"></path><path d="M428.734 706.162H208.732v212.726c49.234 38.848 106.104 68.444 167.986 86.184-7.706-9.822-12.324-22.166-12.324-35.542v-200.42c0-31.784 26.006-57.79 57.79-57.79h6.552v-5.158z" fill="#D3DCFB" p-id="4601"></path><path d="M968.45 712.512c21.65-55.316 33.546-115.522 33.546-178.51 0-33.852-3.434-66.904-9.97-98.824H31.972a492.262 492.262 0 0 0-9.97 98.824c0 62.988 11.896 123.194 33.548 178.51h242.52v-49.326c0-8.26 6.722-14.982 14.982-14.982h397.9c8.26 0 14.982 6.722 14.982 14.982v49.326z" fill="#47477F" p-id="4602"></path><path d="M31.974 435.178a492.262 492.262 0 0 0-9.972 98.824c0 62.988 11.896 123.194 33.548 178.51h242.52v-49.326c0-8.26 6.722-14.982 14.982-14.982h87.026a4.694 4.694 0 0 0-3.068-4.422c-14.578-5.55-14.834-27.748-14.834-27.748v-150.666c0-17.698 11.35-25.164 19.172-28.21 1.028-0.4 1.792-1.122 2.292-1.98z" fill="#2D2D59" p-id="4603"></path><path d="M710.95 645.028h-397.9a18.16 18.16 0 0 0-18.158 18.158v49.326h434.214v-49.326a18.156 18.156 0 0 0-18.156-18.158z" fill="#5F5F9B" p-id="4604"></path><path d="M407.354 709.966c-28.184-23.908-16.118-48.256-8.148-59.102 1.378-1.874 1.094-4.276-0.348-5.836h-85.81a18.16 18.16 0 0 0-18.158 18.158v49.326h113.966a4.54 4.54 0 0 0-1.502-2.546z" fill="#47477F" p-id="4605"></path><path d="M946.724 492.342h-120.128a18.852 18.852 0 0 0-18.852 18.852v125.302a18.852 18.852 0 0 0 18.852 18.852h120.128a18.852 18.852 0 0 0 18.852-18.852v-125.302a18.852 18.852 0 0 0-18.852-18.852z" fill="#5F5F9B" p-id="4606"></path><path d="M926.526 517.05h-39.76a15.55 15.55 0 0 0-15.55 15.55v42.082a15.55 15.55 0 0 0 15.55 15.55h39.76a15.55 15.55 0 0 0 15.55-15.55V532.6a15.55 15.55 0 0 0-15.55-15.55zM541.468 589.724H478.72a15.88 15.88 0 0 1 0-31.756h62.748a15.88 15.88 0 0 1 15.878 15.878 15.876 15.876 0 0 1-15.878 15.878z" fill="#8686BF" p-id="4607"></path><path d="M736.694 524.702h-24.404a15.88 15.88 0 0 1 0-31.756h24.404a15.88 15.88 0 0 1 0 31.756z" fill="#FF4155" p-id="4608"></path><path d="M736.694 590.232h-24.404a15.88 15.88 0 0 1 0-31.756h24.404a15.88 15.88 0 0 1 0 31.756z" fill="#42C3FC" p-id="4609"></path><path d="M530.986 901.076h-41.782a15.88 15.88 0 0 1 0-31.756h41.782a15.88 15.88 0 0 1 15.878 15.878 15.876 15.876 0 0 1-15.878 15.878zM575.578 957.248h-130.966a15.88 15.88 0 0 1 0-31.756h130.966a15.88 15.88 0 0 1 0 31.756zM660.054 788.732H360.136a15.88 15.88 0 0 1 0-31.756h299.918a15.88 15.88 0 0 1 0 31.756zM660.054 844.904H360.136a15.88 15.88 0 0 1 0-31.756h299.918a15.88 15.88 0 0 1 0 31.756z" fill="#BEC8F7" p-id="4610"></path></svg>