<?xml version="1.0" standalone="no"?><!DOCTYPE svg PUBLIC "-//W3C//DTD SVG 1.1//EN" "http://www.w3.org/Graphics/SVG/1.1/DTD/svg11.dtd"><svg t="1652105311738" class="icon" viewBox="0 0 1024 1024" version="1.1" xmlns="http://www.w3.org/2000/svg" p-id="1761" width="200" height="200" xmlns:xlink="http://www.w3.org/1999/xlink"><defs><style type="text/css"></style></defs><path d="M512.035237 694.669631m-231.244107 0a231.244107 231.244107 0 1 0 462.488214 0 231.244107 231.244107 0 1 0-462.488214 0Z" fill="#2DA5FF" p-id="1762" data-spm-anchor-id="a313x.7781069.0.i0" class="selected"></path><path d="M988.660615 412.303398c-0.940833-13.19633-6.969918-25.254499-16.963187-33.926374s-22.710374-12.868624-35.991273-11.991218l-1.930999 0.130378-361.10375-328.252111-0.909119 0.990165C561.240459 16.709479 538.494849 0.933786 512.003524 0.933786c-26.625226 0-49.48712 15.923689-59.941997 38.665776l-1.007783-1.057116L39.338807 430.968541c-23.816822 5.038919-40.994955 26.857792-39.211953 51.79868l35.216055 494.268642a49.286268 49.286268 0 0 0 16.963187 33.926374 49.177033 49.177033 0 0 0 35.973654 11.9736l889.675804-63.409337c13.19633-0.940833 25.254499-6.969918 33.926374-16.963187s12.932051-22.777324 11.991218-35.991273l-35.212531-494.268642zM512 133.076799c30.078472 0 55.234307-20.317768 63.19439-47.866209l313.022594 284.561511-796.367706 56.770648 357.220611-340.472371c8.24198 27.086834 33.168774 47.006421 62.930111 47.006421z m0-99.104617c18.217631 0 33.034872 14.817241 33.034872 33.034872s-14.817241 33.034872-33.034872 33.034873-33.034872-14.817241-33.034872-33.034873 14.817241-33.034872 33.034872-33.034872zM986.944563 920.924151a16.385297 16.385297 0 0 1-11.314664 5.648522L85.950572 989.985533c-4.443411 0.313611-8.654256-1.106448-11.991219-3.995898s-5.334912-6.902967-5.648522-11.314664l-35.23015-494.272166c-0.313611-4.394078 1.106448-8.654256 3.995898-11.991218s6.902967-5.334912 11.314664-5.648523l889.675804-63.409336a16.297204 16.297204 0 0 1 11.991218 3.995898 16.385297 16.385297 0 0 1 5.648523 11.314664l35.23015 494.268642a16.402915 16.402915 0 0 1-3.992375 11.991219z" fill="#333333" p-id="1763"></path><path d="M67.176193 494.554064l790.90594-56.372469 2.346797 32.953827-790.902416 56.372469zM890.997199 435.827751l32.953827-2.33975 2.33975 32.950303-32.953827 2.33975zM97.726843 923.01724L888.653925 866.482681l2.353845 32.950303-790.923559 56.534559zM921.561944 864.220453l32.953827-2.353845 2.353844 32.950303-32.950303 2.357369zM163.021369 868.381966c1.768907 0 3.534291-0.049332 5.334912-0.183234 40.882196-2.924687 71.7676-38.553018 68.860531-79.43169l-0.595509-8.24198-32.953827 2.360892 0.595509 8.224362c1.617387 22.710374-15.543128 42.517202-38.253501 44.134589a41.026669 41.026669 0 0 1-29.979808-9.993269 40.931528 40.931528 0 0 1-14.137163-28.260232l-10.571159-148.292221a40.991432 40.991432 0 0 1 9.97565-29.979807 40.966766 40.966766 0 0 1 28.260232-14.137164c11.131431-0.761123 21.670876 2.759073 29.979808 9.975651a40.966766 40.966766 0 0 1 14.137163 28.260232l0.595509 8.24198 32.953827-2.360892-0.595509-8.224362c-1.40244-19.803305-10.437258-37.87294-25.451827-50.88956s-34.222366-19.373411-53.979863-17.970971c-19.803305 1.40244-37.87294 10.440782-50.88956 25.451828s-19.39103 34.173034-17.970971 53.979862l10.571159 148.278127c2.79431 39.113289 35.497953 69.075478 74.114397 69.057859zM287.250108 561.652735l-32.953826 2.346797 21.142318 296.552728 148.278126-10.55354-2.346797-32.953827-115.341918 8.227886zM509.674345 545.795996c-19.803305 1.40244-37.87294 10.437258-50.88956 25.451827s-19.39103 34.173034-17.970971 53.979863l10.571159 148.278126c1.40244 19.803305 10.454876 37.87294 25.451828 50.88956 13.643843 11.825603 30.705694 18.185918 48.578 18.185918 1.783002 0 3.583623-0.066951 5.384244-0.197328 40.882196-2.924687 71.7676-38.553018 68.860531-79.431691l-10.57116-148.278126a73.80431 73.80431 0 0 0-25.451827-50.88956 73.976972 73.976972 0 0 0-53.962244-17.988589z m18.795521 263.620044c-11.018672 0.82455-21.639163-2.759073-29.979807-9.993269a40.966766 40.966766 0 0 1-14.137164-28.260233l-10.571159-148.278126a40.991432 40.991432 0 0 1 9.97565-29.979807 40.966766 40.966766 0 0 1 28.260233-14.137164 40.98086 40.98086 0 0 1 29.979807 9.975651 40.966766 40.966766 0 0 1 14.137164 28.260232l10.571159 148.278126c1.63853 22.710374-15.525509 42.513679-38.235883 44.13459zM709.680677 796.498083c-11.131431 0.761123-21.653258-2.759073-29.979808-9.97565a40.966766 40.966766 0 0 1-14.137163-28.260232l-1.751289-24.708323-32.953827 2.346797 1.751289 24.708323c1.40244 19.803305 10.454876 37.87294 25.451827 50.88956a73.712693 73.712693 0 0 0 53.962244 17.970971c19.803305-1.40244 37.87294-10.440782 50.889561-25.451828s19.39103-34.173034 17.988589-53.979862l-1.173399-16.466343c-1.40244-19.803305-10.454876-37.87294-25.451827-50.88956a73.716217 73.716217 0 0 0-53.962244-17.97097c-23.090935 1.585674-42.517202-15.560746-44.13459-38.253502l-1.173399-16.483961a40.991432 40.991432 0 0 1 9.975651-29.979807 41.023145 41.023145 0 0 1 28.260232-14.137164c23.073317-1.585674 42.517202 15.543128 44.116971 38.253502l1.768907 24.708322 32.953827-2.360892-1.768907-24.708323c-2.907069-40.882196-38.535399-71.915596-79.43169-68.86053a73.87126 73.87126 0 0 0-50.871942 25.451827 73.783167 73.783167 0 0 0-17.97097 53.979863l1.173398 16.48396c2.907069 40.882196 38.419116 71.718268 79.43169 68.860531 11.068004-0.82455 21.653258 2.759073 29.979808 9.975651a40.966766 40.966766 0 0 1 14.137163 28.260232l1.173399 16.466342c1.63853 22.724469-15.525509 42.513679-38.253501 44.131066zM819.127411 821.801915l131.80826-9.380142-2.346797-32.953827-98.854433 7.054487-7.054487-98.857957 98.857957-7.050963-2.346797-32.953827-98.857957 7.054487-7.033345-98.857957 98.854433-7.054487-2.360892-32.950303-131.794165 9.39776z" fill="#333333" p-id="1764"></path></svg>